<svg width="17" height="17" viewBox="0 0 17 17" fill="none" xmlns="http://www.w3.org/2000/svg">
<g clip-path="url(#clip0_331_695)">
<path d="M8.21484 1C10.3615 1 12.1898 1.755 13.6998 3.265C15.2098 4.775 15.9648 6.60333 15.9648 8.75C15.9648 10.8967 15.2098 12.725 13.6998 14.235C12.1898 15.745 10.3615 16.5 8.21484 16.5C6.06818 16.5 4.23984 15.745 2.72984 14.235C1.21984 12.725 0.464844 10.8967 0.464844 8.75C0.464844 6.60333 1.21984 4.775 2.72984 3.265C4.23984 1.755 6.06818 1 8.21484 1ZM7.30984 5.5L9.68484 7.75H3.96484C3.75484 7.75 3.57818 7.82333 3.43484 7.97C3.29151 8.11667 3.21818 8.29333 3.21484 8.5V9C3.21484 9.21 3.28818 9.38667 3.43484 9.53C3.58151 9.67333 3.75818 9.74667 3.96484 9.75H9.68484L7.30984 12C7.16318 12.1467 7.08984 12.33 7.08984 12.55C7.08984 12.77 7.16318 12.9517 7.30984 13.095L7.65484 13.44C7.79818 13.5867 7.97484 13.66 8.18484 13.66C8.39484 13.66 8.57151 13.5867 8.71484 13.44L12.8398 9.285C12.9865 9.13833 13.0598 8.96 13.0598 8.75C13.0598 8.54 12.9865 8.36333 12.8398 8.22L8.71484 4.065C8.56818 3.91833 8.39151 3.845 8.18484 3.845C7.97818 3.845 7.80151 3.91833 7.65484 4.065L7.30484 4.405C7.16151 4.55167 7.08984 4.735 7.08984 4.955C7.08984 5.175 7.16318 5.35833 7.30984 5.505V5.5Z" fill="white"/>
</g>
<defs>
<clipPath id="clip0_331_695">
<rect width="16" height="16" fill="white" transform="translate(0.214844 0.75)"/>
</clipPath>
</defs>
</svg>
