<svg width="16" height="17" viewBox="0 0 16 17" fill="none" xmlns="http://www.w3.org/2000/svg">
<g clip-path="url(#clip0_331_777)">
<path d="M0.650195 6.41973V16.1197H3.9002V6.36973H0.650195V6.41973ZM2.3002 1.71973C3.4002 1.71973 4.1002 2.46973 4.1002 3.36973C4.1002 4.26973 3.4002 5.06973 2.3002 5.06973H2.2502C1.1502 5.06973 0.450195 4.31973 0.450195 3.41973C0.450195 2.51973 1.2002 1.76973 2.3002 1.76973V1.71973ZM11.8002 6.16973C13.9502 6.16973 15.5502 7.56973 15.5502 10.5197V16.1197H12.3002V10.9197C12.3002 9.61973 11.8002 8.71973 10.6502 8.71973C9.8002 8.71973 9.2502 9.31973 9.0002 9.86973L8.9002 10.7197V16.1197H5.7002V6.36973H8.9002V7.81973C9.1806 7.30075 9.60109 6.87094 10.1138 6.57923C10.6265 6.28752 11.2108 6.14563 11.8002 6.16973Z" fill="white"/>
</g>
<defs>
<clipPath id="clip0_331_777">
<rect width="16" height="16" fill="white" transform="translate(0 0.919922)"/>
</clipPath>
</defs>
</svg>
