<svg width="17" height="17" viewBox="0 0 17 17" fill="none" xmlns="http://www.w3.org/2000/svg">
<g clip-path="url(#clip0_331_782)">
<path d="M15.6796 5.25309C15.7329 5.47531 15.7833 5.75383 15.8307 6.08865C15.8781 6.42346 15.9107 6.75087 15.9285 7.07087C15.9463 7.39087 15.9611 7.69161 15.9729 7.97309C15.9848 8.25457 15.9878 8.48717 15.9818 8.67087V8.91976C15.9818 10.5879 15.8811 11.819 15.6796 12.6131C15.5848 12.9301 15.4174 13.2086 15.1774 13.4486C14.9374 13.6886 14.65 13.8546 14.3152 13.9464C13.9626 14.0412 13.2959 14.1109 12.3152 14.1553C11.3344 14.1998 10.4366 14.2324 9.62183 14.2531H8.3996C5.22923 14.2531 3.25738 14.1509 2.48405 13.9464C1.76109 13.7449 1.30627 13.3005 1.11961 12.6131C1.02775 12.2635 0.958124 11.7775 0.910716 11.1553C0.863309 10.5331 0.832198 10.0101 0.817383 9.58643V8.91976C0.817383 7.27235 0.918124 6.05013 1.11961 5.25309C1.21442 4.92124 1.38183 4.63383 1.62183 4.39087C1.86183 4.14791 2.14923 3.98346 2.48405 3.89754C2.83368 3.80568 3.50035 3.73606 4.48405 3.68865C5.46775 3.64124 6.36553 3.60717 7.17738 3.58643H8.3996C11.567 3.58643 13.5389 3.68865 14.3152 3.89309C14.65 3.98494 14.9374 4.15087 15.1774 4.39087C15.4174 4.63087 15.5848 4.91828 15.6796 5.25309ZM6.84405 11.1998L10.8174 8.91976L6.84405 6.67087V11.1998Z" fill="white"/>
</g>
<defs>
<clipPath id="clip0_331_782">
<rect width="16" height="16" fill="white" transform="translate(0.399414 0.919922)"/>
</clipPath>
</defs>
</svg>
